<svg width="604" height="229" viewBox="0 0 604 229" fill="none" xmlns="http://www.w3.org/2000/svg">
<path d="M90.2216 21.52C92.1416 21.52 93.4376 23.152 94.1096 26.416L93.8216 48.016V51.184L93.2456 56.656H93.8216L102.75 55.792C109.278 55.792 113.934 58.192 116.718 62.992L117.582 65.152C117.582 67.264 115.95 68.608 112.686 69.184C111.726 69.184 110.046 67.84 107.646 65.152L104.046 64.144H102.75C96.2216 64.144 92.9576 65.344 92.9576 67.744L91.0856 110.08C109.71 118.624 119.022 127.312 119.022 136.144C119.022 145.264 111.63 154.768 96.8456 164.656C90.6056 167.152 87.4856 168.64 87.4856 169.12L86.9096 200.944V204.544C86.9096 209.152 85.3256 211.456 82.1576 211.456C79.8536 211.456 78.6536 209.968 78.5576 206.992H77.9816L78.5576 199.792L78.8456 166.816C70.7816 162.688 66.7496 154.864 66.7496 143.344C66.7496 135.376 68.5736 131.392 72.2216 131.392H72.5096C74.7176 132.448 75.8216 133.648 75.8216 134.992L75.2456 143.92C75.2456 149.872 76.6376 154.096 79.4216 156.592H79.7096L82.1576 115.552C65.5496 107.584 57.2456 98.56 57.2456 88.48C57.2456 77.632 66.4136 67.936 84.7496 59.392L85.1816 43.552V28.72C85.1816 23.92 86.8616 21.52 90.2216 21.52ZM65.8856 87.184V89.344C65.8856 95.296 71.4056 100.912 82.4456 106.192L84.3176 69.184C72.0296 74.656 65.8856 80.656 65.8856 87.184ZM90.5096 119.584H90.2216L88.3496 159.184H88.7816C97.2296 155.536 104.142 149.536 109.518 141.184L109.95 138.016V135.856C109.95 130.288 103.47 124.864 90.5096 119.584ZM168.106 48.88H168.538C170.938 50.128 172.138 51.52 172.138 53.056L168.538 80.416C168.538 90.4 171.514 111.088 177.466 142.48L184.666 160.48C184.666 161.728 183.658 163.12 181.642 164.656H178.906C176.986 164.08 174.106 158.176 170.266 146.944C167.77 137.92 165.274 124 162.778 105.184H161.914C156.346 121.696 152.41 130.24 150.106 130.816L147.802 131.392C145.786 131.392 143.29 127.456 140.314 119.584H139.306C138.154 143.296 135.898 155.152 132.538 155.152H132.106C129.034 155.152 127.354 152.752 127.066 147.952C129.466 138.736 130.666 129.136 130.666 119.152L126.778 80.992V78.256C126.778 74.608 128.074 72.784 130.666 72.784C134.41 72.784 137.722 80.128 140.602 94.816C144.826 108.16 147.418 115.36 148.378 116.416C150.586 112.96 152.794 106.816 155.002 97.984C156.73 93.472 158.41 86.416 160.042 76.816L159.466 76.384L160.042 74.08V73.216C160.906 56.992 163.594 48.88 168.106 48.88ZM208.221 97.264C214.269 97.264 217.869 101.488 219.021 109.936V111.232C219.021 120.544 214.221 129.088 204.621 136.864C210.189 142.336 219.933 145.072 233.853 145.072C235.965 145.744 237.021 147.232 237.021 149.536C237.021 152.128 235.341 153.424 231.981 153.424C222.573 153.424 212.685 151.024 202.317 146.224V150.4C202.317 160.288 200.205 165.232 195.981 165.232C193.005 165.232 191.517 159.52 191.517 148.096V136.864L191.085 132.832L192.093 128.224L191.085 114.4V113.824C191.085 111.232 192.429 109.456 195.117 108.496C198.861 101.008 203.229 97.264 208.221 97.264ZM201.021 128.8C203.805 128.8 206.925 123.808 210.381 113.824V107.632L208.653 105.76H207.357C203.133 108.64 201.021 116.32 201.021 128.8ZM254.334 73.072C258.27 68.56 262.494 66.304 267.006 66.304C271.518 66.304 274.206 69.76 275.07 76.672V77.104C275.07 80.56 273.102 88.096 269.166 99.712L275.934 98.272C284.19 98.272 288.99 103.552 290.334 114.112V116.272C290.334 128.944 282.366 140.512 266.43 150.976C261.246 152.992 257.502 154 255.198 154C247.422 154 242.046 149.488 239.07 140.464C239.262 139.408 240.462 137.92 242.67 136C243.726 92.608 244.638 70.912 245.406 70.912C247.038 69.28 248.526 68.464 249.87 68.464C252.462 69.424 253.758 70.96 253.758 73.072H254.334ZM252.894 112.672H253.47C261.342 97.792 265.518 86.272 265.998 78.112V74.8H264.558C262.542 74.8 259.854 80.224 256.494 91.072C254.094 101.344 252.894 108.544 252.894 112.672ZM258.366 121.6L256.206 122.464L252.606 122.176V122.464L252.03 124.336V139.312L251.598 144.64L254.766 145.504C262.926 145.504 270.99 139.36 278.958 127.072C281.166 121.6 282.27 117.088 282.27 113.536C282.27 109.12 280.158 106.912 275.934 106.912H275.358C270.75 106.912 265.086 111.808 258.366 121.6ZM314.376 76.096L317.976 75.52H319.416C321.336 75.52 323.448 76.72 325.752 79.12C329.976 79.12 335.976 84.4 343.752 94.96C350.376 107.44 353.688 118.528 353.688 128.224C353.688 141.472 348.888 150.304 339.288 154.72L330.216 156.592C315.816 156.592 305.448 145.792 299.112 124.192C297.672 118.528 296.952 113.008 296.952 107.632V106.192C296.952 89.968 302.76 79.936 314.376 76.096ZM313.08 89.92L309.912 88.624C306.936 92.176 305.448 97.312 305.448 104.032V107.92C305.448 125.68 311.448 138.592 323.448 146.656L327.48 147.52H332.952C337.944 147.52 341.544 144.4 343.752 138.16L344.616 131.824V127.36C344.616 112.96 338.904 100.048 327.48 88.624L321.576 86.896H321.288C319.368 86.896 316.632 87.904 313.08 89.92ZM377.797 76.096L381.397 75.52H382.837C384.757 75.52 386.869 76.72 389.173 79.12C393.397 79.12 399.397 84.4 407.173 94.96C413.797 107.44 417.109 118.528 417.109 128.224C417.109 141.472 412.309 150.304 402.709 154.72L393.637 156.592C379.237 156.592 368.869 145.792 362.533 124.192C361.093 118.528 360.373 113.008 360.373 107.632V106.192C360.373 89.968 366.181 79.936 377.797 76.096ZM376.501 89.92L373.333 88.624C370.357 92.176 368.869 97.312 368.869 104.032V107.92C368.869 125.68 374.869 138.592 386.869 146.656L390.901 147.52H396.373C401.365 147.52 404.965 144.4 407.173 138.16L408.037 131.824V127.36C408.037 112.96 402.325 100.048 390.901 88.624L384.997 86.896H384.709C382.789 86.896 380.053 87.904 376.501 89.92ZM466.563 68.752H468.003C470.691 68.752 472.227 70.336 472.611 73.504C472.611 76.288 468.819 77.68 461.235 77.68C449.043 82.288 440.835 89.008 436.611 97.84L435.603 102.016V102.88C435.603 107.104 438.435 109.216 444.099 109.216L459.939 108.352C470.595 108.352 477.795 113.536 481.539 123.904L482.403 128.944C482.403 138.928 474.339 148.048 458.211 156.304C453.411 157.648 449.187 158.56 445.539 159.04C435.747 159.04 428.835 153.52 424.803 142.48C423.651 138.736 423.075 134.944 423.075 131.104C423.075 129.952 423.987 128.752 425.811 127.504H427.539C430.515 127.504 432.003 131.296 432.003 138.88C434.499 146.368 438.435 150.112 443.811 150.112H447.699C455.475 150.112 463.155 145.6 470.739 136.576C472.755 133.696 473.763 130.576 473.763 127.216C473.763 122.512 470.067 119.2 462.675 117.28H462.099L443.235 117.712C432.771 116.464 427.539 112.144 427.539 104.752L426.963 102.88C426.963 92.992 434.355 83.392 449.139 74.08C455.571 70.528 461.379 68.752 466.563 68.752ZM516.543 63.136L559.743 60.4C560.991 60.4 562.191 61.6 563.343 64C563.343 67.648 559.119 69.472 550.671 69.472L525.471 70.912L524.895 71.2C527.295 86.848 528.495 116.56 528.495 160.336C528.015 164.56 526.479 166.672 523.887 166.672C521.391 166.672 519.951 164.752 519.567 160.912V127.504C519.567 105.232 518.559 86.656 516.543 71.776C499.359 73.408 490.767 75.328 490.767 77.536L489.471 78.112C486.495 77.248 485.007 75.712 485.007 73.504C485.007 68.224 495.519 64.768 516.543 63.136Z" fill="white"/>
<path d="M104.855 192.22C106.223 192.22 107.16 194.525 107.667 199.136C107.16 200.403 106.324 201.036 105.159 201.036C104.348 200.884 103.537 199.947 102.727 198.224L101.359 197.768C98.9774 197.768 96.8241 199.339 94.8988 202.48V203.164C94.8988 203.924 98.4708 205.191 105.615 206.964C108.604 208.737 110.099 210.891 110.099 213.424C110.099 217.579 106.755 221.125 100.067 224.064L97.2548 224.52C92.9988 224.064 90.8708 221.936 90.8708 218.136V217.908C90.8708 216.692 91.6561 215.983 93.2268 215.78C94.4428 215.78 95.2534 217.047 95.6588 219.58L96.2668 220.036H97.5588C100.447 220.036 103.132 218.06 105.615 214.108V213.12C105.615 211.6 102.296 210.181 95.6588 208.864C92.1628 207.445 90.4148 205.469 90.4148 202.936C90.4148 199.643 93.1761 196.552 98.6988 193.664C101.131 193.36 103.183 192.879 104.855 192.22ZM115.923 200.124L117.291 199.364C118.507 199.364 119.394 200.099 119.951 201.568C119.141 205.317 118.735 209.168 118.735 213.12C118.735 215.096 119.318 217.249 120.483 219.58H120.939C122.409 219.58 124.157 213.779 126.183 202.176C126.893 201.568 127.577 201.264 128.235 201.264C129.806 201.264 130.591 204.051 130.591 209.624C131.25 215.755 131.985 218.82 132.795 218.82L133.935 218.364C135.405 218.921 136.139 219.707 136.139 220.72C135.227 222.645 133.961 223.608 132.339 223.608C130.515 223.608 128.767 221.784 127.095 218.136C125.069 222.392 123.017 224.52 120.939 224.52C117.849 224.52 115.695 221.303 114.479 214.868L114.251 212.436V211.676C114.251 207.623 114.809 203.772 115.923 200.124ZM138.355 186.9C140.989 186.9 142.687 192.068 143.447 202.404L143.903 204.76C146.233 199.997 148.133 197.616 149.603 197.616C149.603 197.413 150.135 197.261 151.199 197.16H151.503C154.847 197.16 156.975 199.769 157.887 204.988V205.216C157.887 209.675 155.657 214.589 151.199 219.96C149.324 221.987 147.272 223 145.043 223C142.509 222.443 141.243 221.176 141.243 219.2L137.443 191.916L136.303 189.104C136.303 188.192 136.987 187.457 138.355 186.9ZM146.259 217.756H146.487C149.121 216.692 151.427 213.069 153.403 206.888V204C152.947 202.429 152.364 201.644 151.655 201.644H151.047C148.817 202.961 147.221 208.332 146.259 217.756ZM176.995 192.22C178.363 192.22 179.301 194.525 179.807 199.136C179.301 200.403 178.465 201.036 177.299 201.036C176.489 200.884 175.678 199.947 174.867 198.224L173.499 197.768C171.118 197.768 168.965 199.339 167.039 202.48V203.164C167.039 203.924 170.611 205.191 177.755 206.964C180.745 208.737 182.239 210.891 182.239 213.424C182.239 217.579 178.895 221.125 172.207 224.064L169.395 224.52C165.139 224.064 163.011 221.936 163.011 218.136V217.908C163.011 216.692 163.797 215.983 165.367 215.78C166.583 215.78 167.394 217.047 167.799 219.58L168.407 220.036H169.699C172.587 220.036 175.273 218.06 177.755 214.108V213.12C177.755 211.6 174.437 210.181 167.799 208.864C164.303 207.445 162.555 205.469 162.555 202.936C162.555 199.643 165.317 196.552 170.839 193.664C173.271 193.36 175.323 192.879 176.995 192.22ZM192.776 197.236L195.892 196.78C197.159 196.78 197.868 197.565 198.02 199.136C198.02 200.504 196.373 201.391 193.08 201.796C191.003 203.417 189.964 205.495 189.964 208.028V210.536C190.977 216.109 192.7 218.896 195.132 218.896H195.892C197.311 218.896 199.439 217.553 202.276 214.868H202.732C203.745 214.868 204.556 215.577 205.164 216.996C204.455 219.175 202.175 221.151 198.324 222.924C197.615 223.228 196.728 223.38 195.664 223.38C190.445 223.38 187.051 219.276 185.48 211.068V209.396C185.48 203.468 187.912 199.415 192.776 197.236ZM219.029 193.056C222.221 193.056 224.121 195.285 224.729 199.744V200.428C224.729 205.343 222.195 209.852 217.129 213.956C220.067 216.844 225.21 218.288 232.557 218.288C233.671 218.643 234.229 219.428 234.229 220.644C234.229 222.012 233.342 222.696 231.569 222.696C226.603 222.696 221.385 221.429 215.913 218.896V221.1C215.913 226.319 214.798 228.928 212.569 228.928C210.998 228.928 210.213 225.913 210.213 219.884V213.956L209.985 211.828L210.517 209.396L209.985 202.1V201.796C209.985 200.428 210.694 199.491 212.113 198.984C214.089 195.032 216.394 193.056 219.029 193.056ZM215.229 209.7C216.698 209.7 218.345 207.065 220.169 201.796V198.528L219.257 197.54H218.573C216.343 199.06 215.229 203.113 215.229 209.7ZM237.667 183.404C239.592 183.809 240.555 184.671 240.555 185.988C240.048 187.407 239.237 188.116 238.123 188.116C236.248 187.761 235.311 186.824 235.311 185.304C235.817 184.037 236.603 183.404 237.667 183.404ZM240.555 194.044C241.365 194.044 242.049 194.779 242.607 196.248L241.923 201.644V205.216C241.923 209.371 242.632 214.817 244.051 221.556C243.544 222.519 242.683 223 241.467 223C239.389 223 238.021 216.92 237.363 204.76V202.1C237.363 196.729 238.427 194.044 240.555 194.044ZM248.57 186.9C251.204 186.9 252.902 192.068 253.662 202.404L254.118 204.76C256.448 199.997 258.348 197.616 259.818 197.616C259.818 197.413 260.35 197.261 261.414 197.16H261.718C265.062 197.16 267.19 199.769 268.102 204.988V205.216C268.102 209.675 265.872 214.589 261.414 219.96C259.539 221.987 257.487 223 255.258 223C252.724 222.443 251.458 221.176 251.458 219.2L247.658 191.916L246.518 189.104C246.518 188.192 247.202 187.457 248.57 186.9ZM256.474 217.756H256.702C259.336 216.692 261.642 213.069 263.618 206.888V204C263.162 202.429 262.579 201.644 261.87 201.644H261.262C259.032 202.961 257.436 208.332 256.474 217.756ZM278.774 195.716C280.801 195.767 284.221 199.313 289.034 206.356L289.186 207.648C289.186 209.067 285.716 210.156 278.774 210.916L278.546 211.144V211.448C279.61 216.008 280.725 218.288 281.89 218.288H282.802C284.424 218.288 286.881 216.54 290.174 213.044H290.63C291.644 213.044 292.429 213.779 292.986 215.248C292.986 216.464 290.858 218.567 286.602 221.556C285.488 222.215 284.145 222.696 282.574 223C278.47 223 275.608 219.149 273.986 211.448C271.656 211.093 270.49 210.131 270.49 208.56C270.49 207.445 271.352 206.711 273.074 206.356V206.66L273.834 206.356V204.456C273.834 198.629 275.481 195.716 278.774 195.716ZM279.23 201.188H278.546L278.242 204V206.356H278.546C281.384 206.255 282.802 205.951 282.802 205.444C281.485 203.468 280.294 202.049 279.23 201.188ZM336.411 188.8C338.793 188.8 340.439 191.333 341.351 196.4V196.704C341.351 197.869 340.566 198.553 338.995 198.756C337.729 198.756 336.867 197.185 336.411 194.044L336.107 193.816H335.195C334.081 195.437 333.523 197.565 333.523 200.2L333.751 204C335.778 204 337.982 203.468 340.363 202.404C341.326 202.404 342.213 203.088 343.023 204.456C343.023 206.533 340.186 207.901 334.511 208.56L336.411 220.948C336.411 222.012 335.525 222.696 333.751 223C332.181 223 331.395 220.568 331.395 215.704L329.951 209.244L325.011 210.004C323.947 210.004 323.314 209.219 323.111 207.648C323.111 206.128 325.163 205.165 329.267 204.76L328.963 200.048C329.774 192.549 332.257 188.8 336.411 188.8ZM357.2 194.348C360.949 194.348 363.786 197.135 365.712 202.708L366.016 204.304C366.016 209.725 363.482 215.273 358.416 220.948C356.389 222.823 354.337 223.76 352.26 223.76C349.22 223.76 347.066 222.012 345.8 218.516C345.344 216.895 345.116 215.476 345.116 214.26V213.348C345.116 205.343 348.029 199.263 353.856 195.108C354.869 194.601 355.984 194.348 357.2 194.348ZM349.6 214.108C349.6 217.553 350.486 219.276 352.26 219.276C355.958 219.276 359.024 214.539 361.456 205.064V203.62C360.594 200.479 358.998 198.908 356.668 198.908C355.756 198.908 355.3 199.541 355.3 200.808C355.3 201.669 354.286 202.353 352.26 202.86C350.486 205.849 349.6 209.599 349.6 214.108ZM379.415 193.056C382.607 193.056 384.507 195.285 385.115 199.744V200.428C385.115 205.343 382.582 209.852 377.515 213.956C380.454 216.844 385.597 218.288 392.943 218.288C394.058 218.643 394.615 219.428 394.615 220.644C394.615 222.012 393.729 222.696 391.955 222.696C386.99 222.696 381.771 221.429 376.299 218.896V221.1C376.299 226.319 375.185 228.928 372.955 228.928C371.385 228.928 370.599 225.913 370.599 219.884V213.956L370.371 211.828L370.903 209.396L370.371 202.1V201.796C370.371 200.428 371.081 199.491 372.499 198.984C374.475 195.032 376.781 193.056 379.415 193.056ZM375.615 209.7C377.085 209.7 378.731 207.065 380.555 201.796V198.528L379.643 197.54H378.959C376.73 199.06 375.615 203.113 375.615 209.7ZM427.006 196.4C427.36 195.133 428.171 194.5 429.438 194.5C430.704 194.5 431.54 195.767 431.946 198.3H432.25L435.746 197.54C437.367 197.54 438.938 199.06 440.458 202.1H440.762C442.991 198.604 445.271 196.856 447.602 196.856C452.567 197.768 455.05 201.011 455.05 206.584L455.202 209.244L454.518 224.596V226.04C454.518 227.307 453.732 228.041 452.162 228.244C450.591 228.244 449.806 226.395 449.806 222.696L450.718 208.94C450.718 203.873 449.527 201.34 447.146 201.34C445.778 201.34 444.131 204.659 442.206 211.296C441.243 218.896 440.458 222.696 439.85 222.696C438.988 222.696 438.558 222.873 438.558 223.228C436.987 223.025 436.202 222.215 436.202 220.796L437.19 211.6C437.038 205.267 436.404 202.1 435.29 202.1H435.062C433.795 203.063 433.162 204.963 433.162 207.8V211.828L432.858 223.456C432.503 224.723 431.718 225.356 430.502 225.356C429.438 225.356 428.754 224.469 428.45 222.696L428.146 213.728L428.602 206.356C428.298 202.556 427.766 199.237 427.006 196.4ZM466.251 195.716C468.277 195.767 471.697 199.313 476.511 206.356L476.663 207.648C476.663 209.067 473.192 210.156 466.251 210.916L466.023 211.144V211.448C467.087 216.008 468.201 218.288 469.367 218.288H470.279C471.9 218.288 474.357 216.54 477.651 213.044H478.107C479.12 213.044 479.905 213.779 480.463 215.248C480.463 216.464 478.335 218.567 474.079 221.556C472.964 222.215 471.621 222.696 470.051 223C465.947 223 463.084 219.149 461.463 211.448C459.132 211.093 457.967 210.131 457.967 208.56C457.967 207.445 458.828 206.711 460.551 206.356V206.66L461.311 206.356V204.456C461.311 198.629 462.957 195.716 466.251 195.716ZM466.707 201.188H466.023L465.719 204V206.356H466.023C468.86 206.255 470.279 205.951 470.279 205.444C468.961 203.468 467.771 202.049 466.707 201.188ZM484.599 196.4C484.954 195.133 485.765 194.5 487.031 194.5C488.298 194.5 489.134 195.767 489.539 198.3H489.843L493.339 197.54C494.961 197.54 496.531 199.06 498.051 202.1H498.355C500.585 198.604 502.865 196.856 505.195 196.856C510.161 197.768 512.643 201.011 512.643 206.584L512.795 209.244L512.111 224.596V226.04C512.111 227.307 511.326 228.041 509.755 228.244C508.185 228.244 507.399 226.395 507.399 222.696L508.311 208.94C508.311 203.873 507.121 201.34 504.739 201.34C503.371 201.34 501.725 204.659 499.799 211.296C498.837 218.896 498.051 222.696 497.443 222.696C496.582 222.696 496.151 222.873 496.151 223.228C494.581 223.025 493.795 222.215 493.795 220.796L494.783 211.6C494.631 205.267 493.998 202.1 492.883 202.1H492.655C491.389 203.063 490.755 204.963 490.755 207.8V211.828L490.451 223.456C490.097 224.723 489.311 225.356 488.095 225.356C487.031 225.356 486.347 224.469 486.043 222.696L485.739 213.728L486.195 206.356C485.891 202.556 485.359 199.237 484.599 196.4ZM532.281 192.22C533.649 192.22 534.586 194.525 535.093 199.136C534.586 200.403 533.75 201.036 532.585 201.036C531.774 200.884 530.963 199.947 530.153 198.224L528.785 197.768C526.403 197.768 524.25 199.339 522.325 202.48V203.164C522.325 203.924 525.897 205.191 533.041 206.964C536.03 208.737 537.525 210.891 537.525 213.424C537.525 217.579 534.181 221.125 527.493 224.064L524.681 224.52C520.425 224.064 518.297 221.936 518.297 218.136V217.908C518.297 216.692 519.082 215.983 520.653 215.78C521.869 215.78 522.679 217.047 523.085 219.58L523.693 220.036H524.985C527.873 220.036 530.558 218.06 533.041 214.108V213.12C533.041 211.6 529.722 210.181 523.085 208.864C519.589 207.445 517.841 205.469 517.841 202.936C517.841 199.643 520.602 196.552 526.125 193.664C528.557 193.36 530.609 192.879 532.281 192.22Z" fill="white"/>
</svg>
